<svg width="366" height="398" viewBox="0 0 366 398" fill="none" xmlns="http://www.w3.org/2000/svg">
<path d="M325.639 268.226L149.559 268.226C147.343 268.224 145.217 267.344 143.65 265.78C142.082 264.215 141.201 262.095 141.198 259.882L141.198 21.3441C141.2 19.1319 142.082 17.011 143.65 15.4468C145.217 13.8825 147.343 13.0026 149.559 13.0001L325.638 13C327.855 13.0025 329.981 13.8824 331.548 15.4466C333.116 17.0109 333.997 19.1317 334 21.3439L334 259.882C333.998 262.094 333.116 264.215 331.548 265.78C329.981 267.344 327.855 268.224 325.639 268.226Z" fill="white"/>
<path d="M325.639 268.226L149.559 268.226C147.343 268.224 145.217 267.344 143.65 265.78C142.082 264.215 141.201 262.095 141.198 259.882L141.198 21.3441C141.2 19.1319 142.082 17.011 143.65 15.4468C145.217 13.8825 147.343 13.0026 149.559 13.0001L325.638 13C327.855 13.0025 329.981 13.8824 331.548 15.4466C333.116 17.0109 333.997 19.1317 334 21.3439L334 259.882C333.998 262.094 333.116 264.215 331.548 265.78C329.981 267.344 327.855 268.224 325.639 268.226ZM149.559 13.9818C147.603 13.984 145.728 14.7604 144.345 16.1406C142.962 17.5208 142.184 19.3922 142.182 21.3441L142.182 259.882C142.184 261.834 142.962 263.706 144.345 265.086C145.728 266.466 147.604 267.242 149.559 267.245L325.639 267.245C327.595 267.242 329.47 266.466 330.853 265.086C332.236 263.706 333.014 261.834 333.016 259.882L333.016 21.3439C333.014 19.392 332.236 17.5207 330.853 16.1404C329.47 14.7602 327.594 13.9838 325.638 13.9816L149.559 13.9818Z" fill="#CCCCCC"/>
<path d="M229.744 74.7547C229.744 81.2094 227.826 87.5191 224.232 92.886C220.639 98.2529 215.531 102.436 209.556 104.906C203.58 107.376 197.004 108.022 190.66 106.763C184.316 105.504 178.489 102.396 173.916 97.8315C169.342 93.2673 166.227 87.4523 164.965 81.1216C163.703 74.7909 164.351 68.229 166.826 62.2656C169.302 56.3023 173.493 51.2053 178.871 47.6192C184.249 44.0332 190.572 42.1191 197.04 42.1191C205.713 42.1219 214.03 45.5611 220.162 51.6809C226.295 57.8006 229.741 66.1 229.744 74.7547Z" fill="white"/>
<path d="M212.155 80.3395C211.798 101.212 180.687 101.208 180.333 80.3389C180.69 59.4674 211.801 59.4706 212.155 80.3395Z" fill="#2563EB"/>
<path d="M195.612 86.8181L195.596 86.2247C199.694 86.7707 200.577 81.7022 196.444 83.5971L197.387 76.7168L197.976 76.7973L197.174 82.6499C201.525 82.0035 199.916 87.4111 195.612 86.8181Z" fill="#2F2E41"/>
<path d="M204.092 77.3018H200.89V77.8951H204.092V77.3018Z" fill="#2F2E41"/>
<path d="M193.984 77.3018H190.781V77.8951H193.984V77.3018Z" fill="#2F2E41"/>
<path d="M201.402 102.54C202.026 98.3356 197.094 99.1664 194.484 99.1248C194.063 99.1261 193.647 99.2211 193.268 99.4028C192.889 99.5846 192.555 99.8485 192.29 100.175C192.026 100.502 191.838 100.884 191.74 101.292C191.642 101.701 191.637 102.126 191.725 102.537C189.704 103.16 187.833 104.19 186.228 105.563C192.995 107.918 200.349 107.999 207.167 105.794C205.505 104.305 203.537 103.194 201.402 102.54Z" fill="#2F2E41"/>
<path d="M188.763 72.8289C191.712 71.1282 195.288 72.433 198.334 73.1463C204.113 74.9191 212.217 72.6991 212.92 65.8292C213.651 59.4401 204.893 55.8792 202.094 62.2383L202.909 62.132C193.83 48.6677 178.038 49.1783 178.142 67.6893C178.108 68.2612 179 68.2593 179.034 67.689C178.699 56.7807 185.934 49.3242 196.16 56.3343C198.444 58.1185 200.457 60.2225 202.139 62.5812C203.204 63.7722 203.435 58.6429 208.532 59.9864C214.142 62.1551 212.312 70.1712 207.298 71.9309C201.102 75.0895 194.393 68.9654 188.313 72.06C188.215 72.1217 188.145 72.2189 188.118 72.3311C188.09 72.4433 188.108 72.5617 188.166 72.6615C188.224 72.7612 188.319 72.8344 188.431 72.8656C188.542 72.8969 188.661 72.8837 188.763 72.8289Z" fill="#2F2E41"/>
<path d="M197.04 108.281C188.595 108.274 180.463 105.09 174.265 99.3648C168.068 93.6394 164.261 85.7932 163.603 77.3909C162.946 68.9886 165.487 60.6479 170.719 54.032C175.951 47.4162 183.489 43.0115 191.831 41.6965C200.173 40.3815 208.705 42.2528 215.726 46.9371C222.747 51.6215 227.74 58.7746 229.71 66.97C231.68 75.1653 230.482 83.8006 226.355 91.1535C222.227 98.5064 215.474 104.037 207.442 106.641C204.083 107.731 200.573 108.285 197.04 108.281ZM197.04 43.0099C190.747 43.009 184.595 44.8705 179.363 48.3588C174.13 51.8472 170.051 56.8059 167.643 62.6076C165.234 68.4093 164.603 74.7936 165.831 80.9529C167.058 87.1122 170.089 92.7699 174.539 97.2105C178.988 101.651 184.658 104.675 190.83 105.9C197.002 107.125 203.4 106.496 209.214 104.092C215.027 101.689 219.996 97.6183 223.492 92.3964C226.988 87.1744 228.853 81.0353 228.852 74.7553C228.842 66.3388 225.488 58.2698 219.524 52.3184C213.56 46.367 205.474 43.0194 197.04 43.0099Z" fill="#CCCCCC"/>
<path d="M291.552 74.9529L241.727 74.9529C240.682 74.9529 239.679 74.5385 238.94 73.8009C238.201 73.0632 237.786 72.0627 237.786 71.0195C237.786 69.9762 238.201 68.9757 238.94 68.2381C239.679 67.5004 240.682 67.086 241.727 67.086L291.552 67.0859C292.597 67.0859 293.6 67.5004 294.339 68.238C295.078 68.9757 295.493 69.9762 295.493 71.0194C295.493 72.0626 295.078 73.0631 294.339 73.8008C293.6 74.5385 292.597 74.9529 291.552 74.9529Z" fill="#E6E6E6"/>
<path d="M307.811 88.2283L241.727 88.2284C241.209 88.229 240.696 88.1277 240.217 87.9303C239.739 87.7329 239.304 87.4433 238.937 87.078C238.57 86.7127 238.28 86.2788 238.081 85.8013C237.883 85.3237 237.781 84.8118 237.781 84.2949C237.781 83.7779 237.883 83.266 238.081 82.7885C238.28 82.3109 238.57 81.8771 238.937 81.5118C239.304 81.1464 239.739 80.8568 240.217 80.6594C240.696 80.462 241.209 80.3607 241.727 80.3614L307.811 80.3613C308.856 80.3613 309.859 80.7757 310.598 81.5134C311.337 82.2511 311.753 83.2516 311.753 84.2948C311.753 85.338 311.337 86.3385 310.598 87.0762C309.859 87.8139 308.856 88.2283 307.811 88.2283Z" fill="#E6E6E6"/>
<path d="M291.479 139.146L167.387 139.146C166.342 139.145 165.341 138.73 164.603 137.993C163.865 137.255 163.45 136.255 163.45 135.213C163.45 134.171 163.865 133.171 164.603 132.433C165.341 131.696 166.342 131.281 167.387 131.279L291.479 131.279C292.525 131.279 293.527 131.694 294.266 132.431C295.006 133.169 295.421 134.17 295.421 135.213C295.421 136.256 295.006 137.257 294.266 137.994C293.527 138.732 292.525 139.146 291.479 139.146Z" fill="#E6E6E6"/>
<path d="M307.739 152.422L167.387 152.422C166.869 152.422 166.356 152.321 165.877 152.124C165.398 151.926 164.963 151.637 164.596 151.271C164.23 150.906 163.939 150.472 163.741 149.995C163.542 149.517 163.44 149.005 163.44 148.488C163.44 147.971 163.542 147.459 163.741 146.982C163.939 146.504 164.23 146.07 164.596 145.705C164.963 145.34 165.398 145.05 165.877 144.853C166.356 144.655 166.869 144.554 167.387 144.555L307.739 144.555C308.784 144.555 309.787 144.969 310.526 145.707C311.265 146.444 311.68 147.445 311.68 148.488C311.68 149.531 311.265 150.532 310.526 151.27C309.787 152.007 308.784 152.422 307.739 152.422Z" fill="#E6E6E6"/>
<path d="M291.479 182.933L167.387 182.933C166.342 182.932 165.341 182.517 164.603 181.78C163.865 181.042 163.45 180.042 163.45 179C163.45 177.958 163.865 176.958 164.603 176.22C165.341 175.483 166.342 175.068 167.387 175.066L291.479 175.066C292.525 175.066 293.527 175.481 294.266 176.218C295.006 176.956 295.421 177.957 295.421 179C295.421 180.043 295.006 181.044 294.266 181.781C293.527 182.519 292.525 182.933 291.479 182.933Z" fill="#E6E6E6"/>
<path d="M307.739 196.209L167.387 196.209C166.869 196.21 166.356 196.108 165.877 195.911C165.398 195.713 164.963 195.424 164.597 195.059C164.23 194.693 163.939 194.259 163.741 193.782C163.542 193.304 163.44 192.792 163.44 192.275C163.44 191.758 163.542 191.247 163.741 190.769C163.939 190.291 164.23 189.858 164.597 189.492C164.963 189.127 165.398 188.837 165.877 188.64C166.356 188.443 166.869 188.341 167.387 188.342L307.739 188.342C308.784 188.342 309.787 188.756 310.526 189.494C311.265 190.232 311.68 191.232 311.68 192.275C311.68 193.319 311.265 194.319 310.526 195.057C309.787 195.794 308.784 196.209 307.739 196.209Z" fill="#E6E6E6"/>
<path d="M291.479 226.721L167.387 226.722C166.341 226.722 165.339 226.307 164.6 225.569C163.86 224.832 163.445 223.831 163.445 222.788C163.445 221.745 163.86 220.744 164.6 220.007C165.339 219.269 166.341 218.855 167.387 218.855L291.479 218.854C292.525 218.854 293.527 219.269 294.266 220.007C295.006 220.744 295.421 221.745 295.421 222.788C295.421 223.831 295.006 224.832 294.266 225.569C293.527 226.307 292.525 226.721 291.479 226.721Z" fill="#E6E6E6"/>
<path d="M307.739 239.997L167.387 239.997C166.341 239.997 165.339 239.583 164.6 238.845C163.86 238.107 163.445 237.107 163.445 236.063C163.445 235.02 163.86 234.02 164.6 233.282C165.339 232.544 166.341 232.13 167.387 232.13L307.739 232.13C308.784 232.13 309.787 232.544 310.526 233.282C311.265 234.02 311.68 235.02 311.68 236.063C311.68 237.107 311.265 238.107 310.526 238.845C309.787 239.582 308.784 239.997 307.739 239.997Z" fill="#E6E6E6"/>
<path d="M219.401 370.807H43.3217C41.1049 370.805 38.9797 369.925 37.4122 368.361C35.8447 366.796 34.9629 364.675 34.9604 362.463V123.925C34.9629 121.713 35.8447 119.592 37.4122 118.028C38.9797 116.463 41.1049 115.584 43.3217 115.581H219.401C221.618 115.584 223.743 116.463 225.311 118.028C226.878 119.592 227.76 121.713 227.762 123.925V362.463C227.76 364.675 226.878 366.796 225.311 368.361C223.743 369.925 221.618 370.805 219.401 370.807Z" fill="white"/>
<path d="M58.0071 176.991C58.0014 181.286 58.8481 185.541 60.4983 189.508C62.1485 193.475 64.5696 197.077 67.6219 200.106C67.8777 200.358 68.1393 200.61 68.4038 200.856C69.9976 202.342 71.7367 203.665 73.5948 204.805C73.9515 205.025 74.3084 205.236 74.674 205.44C76.5532 206.497 78.5331 207.365 80.5844 208.03C80.9382 208.146 81.2979 208.256 81.6576 208.357C88.1784 210.223 95.1183 210.028 101.524 207.799C101.648 207.754 101.773 207.71 101.895 207.665C107.518 205.624 112.472 202.083 116.218 197.426C119.964 192.77 122.358 187.178 123.139 181.258C123.921 175.338 123.061 169.318 120.652 163.852C118.242 158.387 114.377 153.686 109.476 150.26C104.575 146.835 98.8266 144.817 92.856 144.426C86.8855 144.034 80.9218 145.285 75.6142 148.042C70.3066 150.798 65.8585 154.955 62.754 160.059C59.6495 165.164 58.0076 171.02 58.0071 176.991Z" fill="white"/>
<path d="M83.8042 192.987C83.82 195.515 82.8862 197.958 81.1868 199.833C79.5052 201.675 77.0018 202.896 74.4756 202.391C72.1495 201.926 70.2592 199.897 70.495 197.442C70.5341 196.911 70.689 196.394 70.9487 195.928C71.2085 195.462 71.5669 195.059 71.999 194.745C72.4311 194.432 72.9265 194.216 73.4507 194.114C73.9748 194.011 74.5151 194.024 75.0339 194.151C77.2436 194.723 78.1241 197.901 76.2827 199.393C75.8409 199.751 75.2061 199.125 75.652 198.763C75.927 198.512 76.1346 198.197 76.2556 197.845C76.3766 197.493 76.4073 197.117 76.3448 196.75C76.2823 196.384 76.1286 196.038 75.8979 195.746C75.6671 195.454 75.3667 195.225 75.024 195.079C74.6196 194.95 74.1911 194.914 73.7708 194.974C73.3506 195.035 72.9497 195.19 72.5984 195.428C72.2471 195.666 71.9547 195.981 71.7433 196.348C71.5318 196.715 71.4069 197.126 71.378 197.549C71.2321 199.618 72.8206 201.176 74.7685 201.543C76.8758 201.94 78.9651 200.864 80.393 199.378C82.0294 197.653 82.9324 195.362 82.9123 192.987C82.9162 192.872 82.9649 192.762 83.0481 192.682C83.1313 192.602 83.2425 192.557 83.3582 192.557C83.474 192.557 83.5852 192.602 83.6684 192.682C83.7516 192.762 83.8003 192.872 83.8042 192.987Z" fill="#2F2E41"/>
<path d="M92.5135 198.645C101.301 198.645 108.425 191.536 108.425 182.766C108.425 173.997 101.301 166.888 92.5135 166.888C83.7259 166.888 76.6021 173.997 76.6021 182.766C76.6021 191.536 83.7259 198.645 92.5135 198.645Z" fill="#2563EB"/>
<path d="M91.6994 189.542L91.6829 188.948C92.789 188.918 93.7643 188.848 94.4971 188.314C94.7048 188.154 94.8756 187.951 94.9978 187.719C95.1199 187.487 95.1907 187.232 95.2051 186.971C95.218 186.811 95.1938 186.65 95.1343 186.501C95.0749 186.352 94.9818 186.219 94.8623 186.112C94.5855 185.944 94.2685 185.854 93.9447 185.852C93.621 185.849 93.3025 185.933 93.0227 186.096L92.5307 186.321L93.4741 179.44L94.0632 179.521L93.2607 185.374C93.5892 185.252 93.943 185.214 94.2898 185.264C94.6366 185.314 94.9654 185.45 95.2462 185.659C95.4351 185.823 95.5833 186.029 95.6793 186.26C95.7752 186.492 95.8163 186.742 95.7993 186.991C95.7819 187.343 95.6878 187.686 95.5234 187.997C95.3591 188.309 95.1285 188.58 94.8478 188.793C93.9062 189.48 92.6826 189.514 91.6994 189.542Z" fill="#2F2E41"/>
<path d="M100.179 180.025H96.9766V180.619H100.179V180.025Z" fill="#2F2E41"/>
<path d="M90.0706 180.025H86.8682V180.619H90.0706V180.025Z" fill="#2F2E41"/>
<path d="M81.6577 208.356C88.1785 210.222 95.1184 210.027 101.524 207.798C101.649 207.754 101.773 207.709 101.895 207.665C100.386 206.503 98.6788 205.622 96.856 205.066C96.9849 204.61 96.9828 204.127 96.85 203.671C96.6696 203.095 96.3074 202.591 95.8172 202.236C95.3271 201.881 94.7353 201.694 94.1297 201.701H90.2529C89.6483 201.693 89.0574 201.88 88.5682 202.235C88.079 202.589 87.7178 203.092 87.5385 203.668C87.4057 204.125 87.4036 204.609 87.5326 205.066C85.9269 205.556 84.4096 206.299 83.0373 207.264C82.7607 207.457 82.4932 207.659 82.2347 207.87C82.0384 208.027 81.8451 208.19 81.6577 208.356Z" fill="#2F2E41"/>
<path d="M104.978 181.082C104.978 183.758 106.298 185.977 108.014 186.363C108.188 186.402 108.367 186.422 108.546 186.422C110.511 186.422 112.114 184.028 112.114 181.082C112.158 179.563 111.672 178.076 110.74 176.875C110.45 176.524 110.093 176.235 109.69 176.023C109.337 175.839 108.945 175.742 108.546 175.741C107.998 175.748 107.467 175.926 107.027 176.252C105.817 177.106 104.978 178.948 104.978 181.082Z" fill="#3F3D56"/>
<path d="M73.1668 181.082C73.1668 183.384 74.1418 185.348 75.5095 186.099C75.8838 186.308 76.3053 186.419 76.7344 186.422C76.8298 186.422 76.9252 186.416 77.0198 186.404C78.8511 186.188 80.3021 183.885 80.3021 181.082C80.3021 178.836 79.3714 176.91 78.0573 176.124C77.6599 175.878 77.2022 175.745 76.7344 175.741C76.3357 175.742 75.9432 175.839 75.5898 176.023C75.1859 176.236 74.8282 176.526 74.5373 176.878C73.6075 178.079 73.1233 179.564 73.1668 181.082Z" fill="#3F3D56"/>
<path d="M75.732 185.587C75.8028 185.587 75.8725 185.57 75.9355 185.538C75.9984 185.506 76.0528 185.459 76.0941 185.401C76.1354 185.344 76.1624 185.278 76.1729 185.208C76.1834 185.138 76.1771 185.067 76.1546 185C75.3023 182.47 75.0459 179.779 75.4053 177.135C75.7648 174.49 76.7304 171.964 78.2271 169.753C79.7239 167.542 81.7114 165.705 84.0353 164.385C86.3592 163.064 88.9569 162.297 91.6264 162.141C94.2959 161.986 96.9654 162.447 99.4273 163.488C101.889 164.53 104.077 166.124 105.822 168.146C107.566 170.169 108.819 172.566 109.485 175.15C110.15 177.735 110.209 180.438 109.657 183.049C109.633 183.164 109.656 183.285 109.72 183.383C109.785 183.482 109.886 183.551 110.002 183.575C110.117 183.6 110.238 183.577 110.337 183.513C110.436 183.449 110.505 183.348 110.53 183.233C111.11 180.487 111.049 177.646 110.349 174.928C109.65 172.21 108.333 169.69 106.499 167.564C104.665 165.437 102.364 163.761 99.7758 162.666C97.1873 161.571 94.3805 161.086 91.5738 161.25C88.7671 161.413 86.0359 162.22 83.5926 163.609C81.1494 164.997 79.0598 166.928 77.4863 169.254C75.9129 171.579 74.8979 174.235 74.5204 177.015C74.1428 179.795 74.4128 182.625 75.3094 185.284C75.3392 185.372 75.3961 185.449 75.4719 185.503C75.5477 185.558 75.6386 185.587 75.732 185.587Z" fill="#3F3D56"/>
<path d="M100.507 172.478C100.771 172.909 100.88 173.416 100.818 173.916C100.755 174.417 100.524 174.881 100.162 175.233C99.2984 176.196 97.921 176.257 96.7249 176.078C95.3828 175.878 93.9592 175.25 92.6004 175.673C91.4423 176.033 90.6161 177.082 89.413 177.345C88.3459 177.578 87.07 177.269 86.6959 176.134C86.5162 175.589 87.3772 175.355 87.556 175.898C87.798 176.632 88.8429 176.617 89.4413 176.414C90.4007 176.088 91.1401 175.295 92.083 174.917C93.2071 174.569 94.4105 174.573 95.5327 174.926C96.5995 175.166 97.8273 175.521 98.89 175.073C99.6764 174.742 100.302 173.698 99.7365 172.928C99.3969 172.465 100.171 172.021 100.507 172.478Z" fill="#2F2E41"/>
<path d="M90.7104 210.516C87.5644 210.519 84.4336 210.079 81.4102 209.211C81.055 209.112 80.6816 208.998 80.3067 208.876C78.2001 208.191 76.1667 207.3 74.2363 206.215C73.8743 206.013 73.5109 205.799 73.1266 205.563C71.2183 204.391 69.4321 203.032 67.7946 201.506C67.5245 201.255 67.2568 200.997 66.995 200.739C61.8455 195.615 58.501 188.963 57.464 181.78C56.427 174.598 57.7534 167.273 61.2441 160.907C64.7347 154.542 70.2011 149.478 76.8219 146.477C83.4428 143.476 90.8606 142.7 97.961 144.266C105.061 145.832 111.461 149.654 116.199 155.16C120.936 160.665 123.755 167.556 124.233 174.797C124.711 182.038 122.822 189.238 118.848 195.315C114.875 201.393 109.033 206.02 102.2 208.502C102.077 208.546 101.95 208.591 101.823 208.637C98.2519 209.885 94.4945 210.52 90.7104 210.516ZM90.7104 145.245C84.4143 145.245 78.2599 147.11 73.0264 150.603C67.7928 154.096 63.7156 159.06 61.3108 164.866C58.906 170.673 58.2819 177.061 59.5174 183.222C60.753 189.383 63.7926 195.039 68.2515 199.475C68.4982 199.718 68.7537 199.965 69.0121 200.205C70.5629 201.65 72.2546 202.937 74.0619 204.047C74.426 204.271 74.7685 204.472 75.1102 204.664C76.9384 205.691 78.8644 206.535 80.8597 207.183C81.2128 207.299 81.5616 207.405 81.8986 207.499C88.2432 209.316 94.9959 209.127 101.229 206.959L101.589 206.829C108.617 204.276 114.52 199.334 118.259 192.87C121.999 186.406 123.337 178.833 122.039 171.483C120.74 164.132 116.888 157.473 111.159 152.675C105.43 147.877 98.1899 145.246 90.7104 145.245Z" fill="#CCCCCC"/>
<path d="M219.401 370.807H43.3217C41.1049 370.805 38.9797 369.925 37.4122 368.361C35.8447 366.796 34.9629 364.675 34.9604 362.463V123.925C34.9629 121.713 35.8447 119.592 37.4122 118.028C38.9797 116.463 41.1049 115.584 43.3217 115.581H219.401C221.618 115.584 223.743 116.463 225.311 118.028C226.878 119.592 227.76 121.713 227.762 123.925V362.463C227.76 364.675 226.878 366.796 225.311 368.361C223.743 369.925 221.618 370.805 219.401 370.807ZM43.3217 116.563C41.3657 116.565 39.4905 117.341 38.1074 118.722C36.7243 120.102 35.9463 121.973 35.9441 123.925V362.463C35.9463 364.415 36.7243 366.287 38.1074 367.667C39.4905 369.047 41.3657 369.823 43.3217 369.826H219.401C221.357 369.823 223.232 369.047 224.615 367.667C225.998 366.287 226.776 364.415 226.779 362.463V123.925C226.776 121.973 225.998 120.102 224.615 118.722C223.232 117.341 221.357 116.565 219.401 116.563H43.3217Z" fill="#3F3D56"/>
<path d="M185.314 177.535H135.49C134.444 177.535 133.442 177.121 132.702 176.383C131.963 175.645 131.548 174.645 131.548 173.601C131.548 172.558 131.963 171.558 132.702 170.82C133.442 170.082 134.444 169.668 135.49 169.668H185.314C186.359 169.668 187.362 170.082 188.101 170.82C188.84 171.558 189.256 172.558 189.256 173.601C189.256 174.645 188.84 175.645 188.101 176.383C187.362 177.121 186.359 177.535 185.314 177.535Z" fill="#2563EB"/>
<path d="M201.573 190.81H135.49C134.444 190.81 133.442 190.396 132.702 189.658C131.963 188.921 131.548 187.92 131.548 186.877C131.548 185.834 131.963 184.833 132.702 184.095C133.442 183.358 134.444 182.943 135.49 182.943H201.573C202.619 182.943 203.621 183.358 204.36 184.095C205.1 184.833 205.515 185.834 205.515 186.877C205.515 187.92 205.1 188.921 204.36 189.658C203.621 190.396 202.619 190.81 201.573 190.81Z" fill="#2563EB"/>
<path d="M185.242 241.727H61.1492C60.1038 241.727 59.1012 241.313 58.362 240.575C57.6228 239.838 57.2075 238.837 57.2075 237.794C57.2075 236.751 57.6228 235.75 58.362 235.012C59.1012 234.275 60.1038 233.86 61.1492 233.86H185.242C186.287 233.86 187.29 234.275 188.029 235.012C188.768 235.75 189.183 236.751 189.183 237.794C189.183 238.837 188.768 239.838 188.029 240.575C187.29 241.313 186.287 241.727 185.242 241.727Z" fill="#CCCCCC"/>
<path d="M201.501 255.003H61.1492C60.1038 255.003 59.1012 254.588 58.362 253.851C57.6228 253.113 57.2075 252.112 57.2075 251.069C57.2075 250.026 57.6228 249.026 58.362 248.288C59.1012 247.55 60.1038 247.136 61.1492 247.136H201.501C202.546 247.136 203.549 247.55 204.288 248.288C205.027 249.026 205.443 250.026 205.443 251.069C205.443 252.112 205.027 253.113 204.288 253.851C203.549 254.588 202.546 255.003 201.501 255.003Z" fill="#CCCCCC"/>
<path d="M185.242 285.514H61.1492C60.1046 285.513 59.1033 285.098 58.3652 284.361C57.627 283.623 57.2124 282.623 57.2124 281.581C57.2124 280.539 57.627 279.539 58.3652 278.801C59.1033 278.064 60.1046 277.649 61.1492 277.647H185.242C186.287 277.647 187.29 278.062 188.029 278.8C188.768 279.537 189.183 280.538 189.183 281.581C189.183 282.624 188.768 283.625 188.029 284.362C187.29 285.1 186.287 285.514 185.242 285.514Z" fill="#CCCCCC"/>
<path d="M201.501 298.791H61.1492C60.1046 298.789 59.1033 298.375 58.3652 297.637C57.627 296.899 57.2124 295.9 57.2124 294.857C57.2124 293.815 57.627 292.815 58.3652 292.078C59.1033 291.34 60.1046 290.925 61.1492 290.924H201.501C202.546 290.924 203.549 291.338 204.288 292.076C205.027 292.814 205.443 293.814 205.443 294.857C205.443 295.901 205.027 296.901 204.288 297.639C203.549 298.376 202.546 298.791 201.501 298.791Z" fill="#CCCCCC"/>
<path d="M185.242 329.303H61.1492C60.1038 329.303 59.1012 328.888 58.362 328.15C57.6228 327.413 57.2075 326.412 57.2075 325.369C57.2075 324.326 57.6228 323.325 58.362 322.588C59.1012 321.85 60.1038 321.436 61.1492 321.436H185.242C186.287 321.436 187.29 321.85 188.029 322.588C188.768 323.325 189.183 324.326 189.183 325.369C189.183 326.412 188.768 327.413 188.029 328.15C187.29 328.888 186.287 329.303 185.242 329.303Z" fill="#CCCCCC"/>
<path d="M201.501 342.578H61.1492C60.1038 342.578 59.1012 342.163 58.362 341.426C57.6228 340.688 57.2075 339.688 57.2075 338.644C57.2075 337.601 57.6228 336.601 58.362 335.863C59.1012 335.125 60.1038 334.711 61.1492 334.711H201.501C202.546 334.711 203.549 335.125 204.288 335.863C205.027 336.601 205.443 337.601 205.443 338.644C205.443 339.688 205.027 340.688 204.288 341.426C203.549 342.163 202.546 342.578 201.501 342.578Z" fill="#CCCCCC"/>
</svg>
